# xmcd
#
# Track frame offsets:
#	150
#	21454
#	27300
#	31203
#	35907
#	48257
#	72733
#	77947
#	83366
#	88510
#	101451
#	114340
#	125154
#	138458
#	153995
#
# Disc length: 2258 seconds
#
# Revision: 0
# Processed by: cddbd v1.5.2PL0 Copyright (c) Steve Scherf et al.
# Submitted via: EasyCDDAExtractor 16.0.6.1
#
DISCID=c608d00f
DTITLE=Της Πλάκας οι ανηφοριές 2
DYEAR=2013
DGENRE=Ποικίλη
TTITLE0=Μαρούδας Τώνης - Εγώ θα κόψω το κρασί [Ανδρέας Χατζηαποστόλου-Τάκης Σω
TTITLE0=τήρχος]
TTITLE1=Παρούσης Σταύρος - Παίξε πλακιώτικη κιθάρα [Θόδ. Παπαδόπουλος-Κώστας Κ
TTITLE1=ιούσης]
TTITLE2=Παρούσης Σταύρος - Ακρόπολη, Πλάκα [Αιμ. Σαββίδης-Μηνάς Πορτοκάλης]
TTITLE3=Κορώνη Γεωργία - Έλα μιά νύχτα να αλητέψουμε [Χρ. Γιαννακόπουλος-Μίμης
TTITLE3=Κατριβάνος]
TTITLE4=Μοσχολιού Βίκυ - Άλα [Μιχ. Σουγιούλ-Αλ. Σακελλάριος/Χρ. Γιαννακόπουλος
TTITLE4=]
TTITLE5=Παναγόπουλος Σώτος - Με λέν' μπεκρή [Αντώνης Βώττης]
TTITLE6=Παρούσης Σταύρος - Σαν το κρασί [Τάκης Οικονομίδης-Κωνστ. Ζαχαρόπουλος
TTITLE6=]
TTITLE7=Παρούσης Σταύρος - Εγώ το πίνω και το λέω [Ερμής Πόγγης-Τίμος Μωραϊτίν
TTITLE7=ης]
TTITLE8=Παρούσης Σταύρος - Μπαρμπα Γιάννης Κανατάς [παραδ., διασκ. Γιάννης Θαν
TTITLE8=όπουλος]
TTITLE9=Λίντα Μαίρη - Το τελευταίο ποτηράκι [Χρήστος Κολοκοτρώνης]
TTITLE10=Ροδά Ελένη - Θέλω να τα σπάσω [Γ.Μουζάκης-Κ.Νικολαΐδης/Ν.Ελευθερίου/Η
TTITLE10=λ.Λυμπερόπουλος]
TTITLE11=Άνευ ερμηνευτού - Λίγο κρασί, λίγο θάλασσα και τ' αγόρι μου [Γ. Κατσα
TTITLE11=ρός-Πυθαγόρας]
TTITLE12=Νάκος Γιώργος - Βαρέλι, κάνουλα, ποτήρι [Αλ. Σπάθης-Γ.Οικονομίδης]
TTITLE13=Τρίο Μπριλάντε - Πάμε μιά βόλτα στα πλακιώτικα στενά [Γ. Οικονομίδης-
TTITLE13=Αλ. Σπάθης]
TTITLE14=Κασιμάτης Ζαχαρίας - Ο καϋμός του μπεκρή [Δημ. Σέμσης]
EXTD=
EXTT0=
EXTT1=
EXTT2=
EXTT3=
EXTT4=
EXTT5=
EXTT6=
EXTT7=
EXTT8=
EXTT9=
EXTT10=
EXTT11=
EXTT12=
EXTT13=
EXTT14=
PLAYORDER=
